<svg width="1400" height="760" viewBox="0 0 1400 760" fill="none" xmlns="http://www.w3.org/2000/svg" role="img" aria-label="Evolva architecture diagram">
  <defs><linearGradient id="bg" x1="0" y1="0" x2="1400" y2="760"><stop stop-color="#050505"/><stop offset="1" stop-color="#0B0905"/></linearGradient><linearGradient id="gold" x1="0" y1="0" x2="1" y2="1"><stop stop-color="#F0D58E"/><stop offset="1" stop-color="#8E682A"/></linearGradient><filter id="s"><feDropShadow dx="0" dy="12" stdDeviation="14" flood-color="#000" flood-opacity="0.55"/></filter></defs>
  <rect width="1400" height="760" rx="30" fill="url(#bg)"/><rect x="1" y="1" width="1398" height="758" rx="29" stroke="#241A0B"/>
  <text x="70" y="76" fill="#E8CB82" font-family="Inter, sans-serif" font-size="34" font-weight="700">Evolva Agent Architecture</text><text x="70" y="112" fill="#9E8753" font-family="Inter, sans-serif" font-size="18">A local agent harness with observability, safety, extensibility and self-evolution loops.</text>
  <g font-family="Inter, sans-serif" filter="url(#s)">
    <rect x="92" y="170" width="190" height="86" rx="18" fill="#111" stroke="#6E5120"/><text x="137" y="205" fill="#F0D58E" font-size="22" font-weight="650">CLI / TUI</text><text x="130" y="232" fill="#9E8753" font-size="14">chat · commands · image</text>
    <rect x="462" y="170" width="280" height="130" rx="24" fill="#12100B" stroke="url(#gold)"/><text x="526" y="218" fill="#F5D98F" font-size="28" font-weight="720">Evolva Core</text><text x="505" y="252" fill="#A98A4B" font-size="15">plan · act · observe · reflect</text>
    <rect x="930" y="150" width="175" height="70" rx="16" fill="#0E0E0D" stroke="#6E5120"/><text x="974" y="193" fill="#E8CB82" font-size="20">Memory</text>
    <rect x="1135" y="150" width="175" height="70" rx="16" fill="#0E0E0D" stroke="#6E5120"/><text x="1186" y="193" fill="#E8CB82" font-size="20">Skills</text>
    <rect x="930" y="250" width="175" height="70" rx="16" fill="#0E0E0D" stroke="#6E5120"/><text x="974" y="293" fill="#E8CB82" font-size="20">Context</text>
    <rect x="1135" y="250" width="175" height="70" rx="16" fill="#0E0E0D" stroke="#6E5120"/><text x="1189" y="293" fill="#E8CB82" font-size="20">Todo</text>
    <rect x="155" y="410" width="190" height="78" rx="17" fill="#0E0E0D" stroke="#6E5120"/><text x="208" y="458" fill="#E8CB82" font-size="20">Policy</text>
    <rect x="385" y="410" width="190" height="78" rx="17" fill="#0E0E0D" stroke="#6E5120"/><text x="438" y="458" fill="#E8CB82" font-size="20">Sandbox</text>
    <rect x="615" y="410" width="190" height="78" rx="17" fill="#0E0E0D" stroke="#6E5120"/><text x="673" y="458" fill="#E8CB82" font-size="20">Tools</text>
    <rect x="845" y="410" width="190" height="78" rx="17" fill="#0E0E0D" stroke="#6E5120"/><text x="902" y="458" fill="#E8CB82" font-size="20">MCP</text>
    <rect x="1075" y="410" width="190" height="78" rx="17" fill="#0E0E0D" stroke="#6E5120"/><text x="1118" y="458" fill="#E8CB82" font-size="20">Sub Agents</text>
    <rect x="330" y="585" width="210" height="76" rx="17" fill="#0E0E0D" stroke="#6E5120"/><text x="392" y="632" fill="#E8CB82" font-size="20">Trace</text>
    <rect x="595" y="585" width="210" height="76" rx="17" fill="#0E0E0D" stroke="#6E5120"/><text x="660" y="632" fill="#E8CB82" font-size="20">Eval</text>
    <rect x="860" y="585" width="210" height="76" rx="17" fill="#0E0E0D" stroke="#6E5120"/><text x="916" y="632" fill="#E8CB82" font-size="20">Workflow</text>
  </g>
  <g stroke="#B9944D" stroke-width="2" opacity="0.62" marker-end="url(#a)"><defs><marker id="a" markerWidth="10" markerHeight="10" refX="8" refY="3" orient="auto"><path d="M0 0L8 3L0 6" fill="#B9944D"/></marker></defs><path d="M282 213H462"/><path d="M742 220H930"/><path d="M742 253H930"/><path d="M742 250H1135"/><path d="M602 300V410"/><path d="M602 300C450 335 250 365 250 410"/><path d="M640 300C750 350 940 360 940 410"/><path d="M650 300C880 345 1170 360 1170 410"/><path d="M602 300V585"/><path d="M642 300C700 390 700 505 700 585"/><path d="M682 300C830 405 965 488 965 585"/></g>
</svg>