<svg width="512" height="512" viewBox="0 0 512 512" fill="none" xmlns="http://www.w3.org/2000/svg" role="img" aria-label="Evolva logo">
  <defs>
    <radialGradient id="bg" cx="0" cy="0" r="1" gradientUnits="userSpaceOnUse" gradientTransform="translate(256 256) rotate(90) scale(258)">
      <stop offset="0" stop-color="#0E0B05"/>
      <stop offset="0.62" stop-color="#050403"/>
      <stop offset="1" stop-color="#000000"/>
    </radialGradient>
    <linearGradient id="helixA" x1="152" y1="72" x2="360" y2="438" gradientUnits="userSpaceOnUse">
      <stop stop-color="#FFF4C8"/>
      <stop offset="0.26" stop-color="#E7C779"/>
      <stop offset="0.58" stop-color="#9B732C"/>
      <stop offset="1" stop-color="#F6E2A3"/>
    </linearGradient>
    <linearGradient id="helixB" x1="358" y1="70" x2="154" y2="440" gradientUnits="userSpaceOnUse">
      <stop stop-color="#FFEFC0" stop-opacity="0.96"/>
      <stop offset="0.34" stop-color="#C79A48" stop-opacity="0.82"/>
      <stop offset="0.68" stop-color="#6F4D1D" stop-opacity="0.54"/>
      <stop offset="1" stop-color="#EFD18A" stop-opacity="0.9"/>
    </linearGradient>
    <filter id="goldGlow" x="52" y="28" width="408" height="456" filterUnits="userSpaceOnUse" color-interpolation-filters="sRGB">
      <feGaussianBlur stdDeviation="3.2" result="blur"/>
      <feColorMatrix in="blur" type="matrix" values="1 0 0 0 0.97 0 1 0 0 0.72 0 0 1 0 0.28 0 0 0 0.75 0" result="glow"/>
      <feMerge>
        <feMergeNode in="glow"/>
        <feMergeNode in="SourceGraphic"/>
      </feMerge>
    </filter>
    <filter id="softDot" x="0" y="0" width="512" height="512" filterUnits="userSpaceOnUse" color-interpolation-filters="sRGB">
      <feDropShadow dx="0" dy="0" stdDeviation="5" flood-color="#F3D58C" flood-opacity="0.95"/>
      <feDropShadow dx="0" dy="0" stdDeviation="13" flood-color="#B88736" flood-opacity="0.42"/>
    </filter>
  </defs>

  <rect width="512" height="512" fill="url(#bg)"/>
  <circle cx="256" cy="255" r="198" fill="#D7AA57" opacity="0.055"/>

  <g filter="url(#goldGlow)" stroke-linecap="round" stroke-linejoin="round">
    <path d="M154 76C346 104 346 206 256 256C166 306 166 408 358 436" stroke="url(#helixA)" stroke-width="7.5"/>
    <path d="M358 76C166 104 166 206 256 256C346 306 346 408 154 436" stroke="url(#helixB)" stroke-width="7.5"/>

    <g stroke="#EBD08A" stroke-width="4.6" opacity="0.95">
      <path d="M171 106H341"/>
      <path d="M151 166H361"/>
      <path d="M181 226H331"/>
      <path d="M181 286H331"/>
      <path d="M151 346H361"/>
      <path d="M171 406H341"/>
    </g>

    <g filter="url(#softDot)" fill="#FFF0B8">
      <circle cx="340" cy="106" r="7.5"/>
      <circle cx="361" cy="166" r="7.5"/>
      <circle cx="181" cy="226" r="7.2"/>
      <circle cx="331" cy="286" r="7.2"/>
      <circle cx="151" cy="346" r="7.5"/>
      <circle cx="341" cy="406" r="7.5"/>
    </g>
  </g>

  <g opacity="0.28" stroke="#E5C67D" stroke-width="1.2" stroke-linecap="round">
    <path d="M112 86C110 137 111 177 142 221"/>
    <path d="M400 426C402 375 401 335 370 291"/>
  </g>
</svg>
