<svg width="1400" height="860" viewBox="0 0 1400 860" fill="none" xmlns="http://www.w3.org/2000/svg" role="img" aria-label="Evolva TUI mockup">
  <defs><linearGradient id="bg" x1="0" y1="0" x2="1400" y2="860"><stop stop-color="#030303"/><stop offset="1" stop-color="#0A0804"/></linearGradient><filter id="s"><feDropShadow dx="0" dy="25" stdDeviation="28" flood-color="#000" flood-opacity="0.65"/></filter></defs>
  <rect width="1400" height="860" rx="34" fill="url(#bg)"/><rect x="80" y="70" width="1240" height="720" rx="24" fill="#090909" stroke="#2A1F0D" filter="url(#s)"/>
  <rect x="80" y="70" width="1240" height="48" rx="24" fill="#14100A"/><circle cx="112" cy="94" r="7" fill="#6B241E"/><circle cx="138" cy="94" r="7" fill="#8A682A"/><circle cx="164" cy="94" r="7" fill="#4D6B39"/><text x="205" y="101" fill="#D7B56D" font-family="SFMono-Regular, Menlo, monospace" font-size="17">Evolva TUI · model=gpt-4o-mini · tools=on</text>
  <rect x="110" y="148" width="770" height="500" rx="18" fill="#0D0D0C" stroke="#21180A"/><rect x="910" y="148" width="380" height="500" rx="18" fill="#0D0D0C" stroke="#21180A"/><text x="936" y="185" fill="#D7B56D" font-family="Inter, sans-serif" font-size="20" font-weight="650">Tool Logs</text>
  <g font-family="SFMono-Regular, Menlo, monospace" font-size="18"><text x="138" y="195" fill="#78B7FF">[15:24:01] You:</text><text x="138" y="226" fill="#D8D8D8">帮我创建一个带 MCP、Memory 和 Eval 的 agent workflow</text><text x="138" y="286" fill="#D7B56D">[15:24:03] Evolva:</text><text x="138" y="318" fill="#D8D8D8">我会先拆分任务，创建 todo，然后通过 workflow 编排执行。</text><text x="138" y="378" fill="#D7B56D">[15:24:05] Evolva:</text><text x="138" y="410" fill="#D8D8D8">已完成：写入 workflow、运行 eval、保存 trace，并沉淀 skill。</text><text x="138" y="548" fill="#6E6E6E">/help  /tools  /mcp  /trace  /policy  /workflow</text></g>
  <g font-family="SFMono-Regular, Menlo, monospace" font-size="15" fill="#BFA269"><text x="936" y="226">TOOL todo_add -&gt; ok=True</text><text x="936" y="260">TOOL context_add -&gt; ok=True</text><text x="936" y="294">TOOL mcp_tools -&gt; ok=True</text><text x="936" y="328">TOOL write_file -&gt; ok=True</text><text x="936" y="362">TOOL shell -&gt; ok=True</text><text x="936" y="396">TOOL save_skill -&gt; ok=True</text></g>
  <rect x="110" y="680" width="1180" height="72" rx="16" fill="#0D0D0C" stroke="#3A2A10"/><text x="138" y="724" fill="#D8D8D8" font-family="SFMono-Regular, Menlo, monospace" font-size="20">You&gt; /workflow evolva/workflows/research_agent.json --yes</text>
</svg>