<svg width="1400" height="760" viewBox="0 0 1400 760" fill="none" xmlns="http://www.w3.org/2000/svg" role="img" aria-label="Evolva Workflow MCP Memory diagram">
  <defs><linearGradient id="bg" x1="0" y1="0" x2="1400" y2="760"><stop stop-color="#040404"/><stop offset="1" stop-color="#0A0804"/></linearGradient><linearGradient id="g" x1="0" y1="0" x2="1" y2="1"><stop stop-color="#EFD38B"/><stop offset="1" stop-color="#7B5A22"/></linearGradient><filter id="s"><feDropShadow dx="0" dy="14" stdDeviation="16" flood-color="#000" flood-opacity="0.6"/></filter></defs>
  <rect width="1400" height="760" rx="30" fill="url(#bg)"/><rect x="1" y="1" width="1398" height="758" rx="29" stroke="#241A0B"/>
  <text x="70" y="78" fill="#EFD38B" font-family="Inter, sans-serif" font-size="34" font-weight="700">Workflow · MCP · Memory Loop</text><text x="70" y="114" fill="#9D8651" font-family="Inter, sans-serif" font-size="18">Evolva turns user goals into executable workflows, external tool calls, durable memory, and measurable improvement.</text>
  <g font-family="Inter, sans-serif" filter="url(#s)">
    <rect x="92" y="210" width="185" height="90" rx="18" fill="#10100F" stroke="#6D5121"/><text x="142" y="250" fill="#EFD38B" font-size="22" font-weight="650">Goal</text><text x="124" y="278" fill="#9D8651" font-size="14">user intent</text>
    <rect x="350" y="210" width="210" height="90" rx="18" fill="#10100F" stroke="#6D5121"/><text x="410" y="250" fill="#EFD38B" font-size="22" font-weight="650">Planner</text><text x="392" y="278" fill="#9D8651" font-size="14">todo + graph</text>
    <rect x="640" y="180" width="220" height="90" rx="18" fill="#12100A" stroke="url(#g)"/><text x="690" y="220" fill="#F6DB94" font-size="22" font-weight="650">Workflow</text><text x="690" y="248" fill="#A98A4B" font-size="14">agent / role / tool nodes</text>
    <rect x="640" y="330" width="220" height="90" rx="18" fill="#10100F" stroke="#6D5121"/><text x="714" y="370" fill="#EFD38B" font-size="22" font-weight="650">MCP</text><text x="678" y="398" fill="#9D8651" font-size="14">external servers</text>
    <rect x="940" y="180" width="185" height="90" rx="18" fill="#10100F" stroke="#6D5121"/><text x="992" y="220" fill="#EFD38B" font-size="22" font-weight="650">Trace</text><text x="978" y="248" fill="#9D8651" font-size="14">observability</text>
    <rect x="940" y="330" width="185" height="90" rx="18" fill="#10100F" stroke="#6D5121"/><text x="995" y="370" fill="#EFD38B" font-size="22" font-weight="650">Eval</text><text x="980" y="398" fill="#9D8651" font-size="14">quality gate</text>
    <rect x="1175" y="255" width="170" height="90" rx="18" fill="#10100F" stroke="#6D5121"/><text x="1210" y="295" fill="#EFD38B" font-size="22" font-weight="650">Memory</text><text x="1215" y="323" fill="#9D8651" font-size="14">lessons + skills</text>
    <rect x="510" y="540" width="360" height="88" rx="20" fill="#12100A" stroke="url(#g)"/><text x="575" y="578" fill="#F6DB94" font-size="22" font-weight="650">Self-Evolution Engine</text><text x="585" y="607" fill="#A98A4B" font-size="14">feedback · failures · reusable playbooks</text>
  </g>
  <g stroke="#B9944D" stroke-width="2" opacity="0.65" marker-end="url(#a)"><defs><marker id="a" markerWidth="10" markerHeight="10" refX="8" refY="3" orient="auto"><path d="M0 0L8 3L0 6" fill="#B9944D"/></marker></defs><path d="M277 255H350"/><path d="M560 255H640"/><path d="M750 270V330"/><path d="M860 225H940"/><path d="M860 375H940"/><path d="M1125 225C1170 225 1190 255 1210 270"/><path d="M1125 375C1170 375 1190 345 1210 330"/><path d="M1260 345C1240 470 1045 560 870 584"/><path d="M510 584C360 560 250 470 185 300"/><path d="M690 540V420"/></g>
</svg>